<?xml version="1.0" encoding="UTF-8"?>
<svg width="188px" height="47px" viewBox="0 0 188 47" version="1.1" xmlns="http://www.w3.org/2000/svg" xmlns:xlink="http://www.w3.org/1999/xlink">
    <g id="Page-1" stroke="none" stroke-width="1" fill="none" fill-rule="evenodd">
        <g id="Big-L-Driving-School-v2-" transform="translate(0.078125, 0.000000)">
            <polygon id="Fill-1" fill="#FFFFFE" points="0.199599449 46.5517209 187.657776 46.5517209 187.657776 0.917077085 0.199599449 0.917077085"></polygon>
            <path d="M45.0809033,3.31583363 C34.6728804,7.37388042 22.2129425,31.6319824 34.2608325,38.7921805 C37.6945644,40.8316091 41.7096029,40.95231 45.0809033,41.1715139 L45.0809033,3.31583363 Z M0.199599449,0.917077085 L42.679372,0.917077085 L35.5843801,4.32444902 C32.5751823,5.76869747 29.5396246,7.50845497 26.689974,9.23572616 C20.5855617,12.9358324 14.5824272,17.2019842 9.35899258,22.0744151 C5.97659324,25.2306737 2.69824638,28.8641863 0.199599449,32.887549 L0.199599449,0.917077085 L0.199599449,0.917077085 Z" id="Fill-3" fill="#C8332C"></path>
            <path d="M33.1231921,9.56036991 C26.0712085,17.2574788 24.7074273,20.0211127 24.7074273,20.0211127 C24.7074273,20.0211127 21.9104966,20.2111819 21.9021724,19.9031866 C21.8952356,19.5896418 22.2406898,19.0638299 22.8164469,18.4103803 C25.4912894,15.3734352 33.1231921,9.56036991 33.1231921,9.56036991 Z M20.6216332,21.2239594 L23.6447047,21.2919404 L21.8952356,24.2789403 L18.5489078,24.2359319 L20.6216332,21.2239594 Z M17.5305808,26.1158134 L21.0503294,25.9160327 L18.9123978,30.316759 L14.6920291,30.4194241 L17.5305808,26.1158134 Z M36.8094246,6.87581588 C36.8094246,6.87581588 7.50547104,20.9437114 0.199599449,39.0710411 L0.199599449,45.7983809 L8.81653231,45.7983809 C9.41032514,42.5394572 11.795208,35.7205512 13.9373018,32.4186191 L18.1035632,32.4741138 C17.9606644,32.8750627 17.4237536,34.1278545 17.3086022,34.5024435 C15.8560295,39.2222641 16.546938,43.5466852 18.1188242,45.7983809 L45.0809033,45.7983809 L45.0809033,44.0086782 C35.1612333,43.3926875 27.2990278,40.5291632 26.7426939,32.9472057 C26.0753706,23.8252715 29.1386757,13.6863977 36.8094246,6.87581588 L36.8094246,6.87581588 Z" id="Fill-4" fill="#0A0B09"></path>
            <path d="M63.2609529,15.0265936 L82.5023378,15.0265936 C84.0658998,15.0265936 85.1300098,14.7907413 85.6932806,14.3231988 C86.2565514,13.8528816 86.5381868,13.1647479 86.5381868,12.2574102 L86.5381868,10.6619388 C86.5381868,9.69216972 86.2648756,8.98045074 85.7168658,8.52678192 C85.1688561,8.0731131 84.2851037,7.84697237 83.0656086,7.84697237 L63.8713941,7.84697237 C63.4635084,7.84697237 63.2609529,8.04952787 63.2609529,8.45602623 L63.2609529,15.0265936 Z M63.2609529,20.1418136 L63.2609529,27.132753 C63.2609529,27.5406388 63.4635084,27.7445816 63.8713941,27.7445816 L83.1127791,27.7445816 C84.3627962,27.7445816 85.2548728,27.5170535 85.7876215,27.0633847 C86.3189829,26.6111033 86.5839698,25.8827359 86.5839698,24.8810573 L86.5839698,23.0982915 C86.5839698,22.1285223 86.2953976,21.3932181 85.7168658,20.8923789 C85.138334,20.3915396 84.0658998,20.1418136 82.5023378,20.1418136 L63.2609529,20.1418136 Z M84.5195686,1.37074591 C87.7424208,1.37074591 90.0343501,2.01170919 91.3953566,3.29363577 C92.7563631,4.57694971 93.4361726,6.51648797 93.4361726,9.11363792 L93.4361726,11.3653336 C93.4361726,13.994393 92.4358814,15.9797144 90.4325243,17.3254598 C92.5926538,18.5768643 93.6706375,20.5954824 93.6706375,23.3799269 L93.6706375,26.1005524 C93.6706375,27.3533443 93.5305135,28.4784985 93.2488782,29.480177 C92.9672428,30.4818556 92.5052497,31.3336986 91.8642865,32.0384807 C91.2233232,32.7418755 90.3700928,33.281561 89.3059828,33.6575373 C88.2432601,34.0321263 86.9294241,34.2208081 85.3644748,34.2208081 L57.4881212,34.2208081 C56.5502615,34.2208081 56.0813316,33.7504909 56.0813316,32.8126312 L56.0813316,2.77753546 C56.0813316,1.83967576 56.5502615,1.37074591 57.4881212,1.37074591 L84.5195686,1.37074591 L84.5195686,1.37074591 Z" id="Fill-5" fill="#C8332C"></path>
            <path d="M105.355038,1.37074591 C106.043171,1.37074591 106.387238,1.71481278 106.387238,2.40294653 L106.387238,33.1886075 C106.387238,33.8767412 106.043171,34.2208081 105.355038,34.2208081 L100.288375,34.2208081 C99.5683322,34.2208081 99.2090043,33.8767412 99.2090043,33.1886075 L99.2090043,2.40294653 C99.2090043,1.71481278 99.5683322,1.37074591 100.288375,1.37074591 L105.355038,1.37074591" id="Fill-6" fill="#C8332C"></path>
            <path d="M149.187492,1.37074591 C149.875626,1.37074591 150.219693,1.71481278 150.219693,2.40294653 L150.219693,7.00206622 C150.219693,7.72072203 149.875626,8.0814373 149.187492,8.0814373 L125.677181,8.0814373 C124.456298,8.0814373 123.446296,8.18271505 122.64856,8.38527055 C121.852212,8.58921341 121.218185,8.93328028 120.749255,9.41747117 C120.278938,9.90304941 119.943196,10.5523369 119.739253,11.3653336 C119.536697,12.1797177 119.435419,13.2119183 119.435419,14.4633229 L119.435419,21.2211847 C119.435419,22.4725892 119.536697,23.513114 119.739253,24.3413718 C119.943196,25.1696295 120.278938,25.8272412 120.749255,26.3128195 C121.218185,26.7970104 121.852212,27.1410772 122.64856,27.3450201 C123.446296,27.5475756 124.456298,27.6502407 125.677181,27.6502407 L141.162965,27.6502407 C141.975962,27.6502407 142.569755,27.439361 142.945731,27.0162143 C143.321707,26.5944549 143.509002,25.8522138 143.509002,24.7881038 L143.509002,20.9867198 C143.509002,20.578834 143.321707,20.3762786 142.945731,20.3762786 L129.195542,20.3762786 C128.507408,20.3762786 128.163342,20.0169506 128.163342,19.2969075 L128.163342,15.7771589 C128.163342,15.0571157 128.507408,14.6977878 129.195542,14.6977878 L148.764346,14.6977878 C149.703593,14.6977878 150.172523,15.1667176 150.172523,16.1059647 L150.172523,27.0397995 C150.172523,29.6688589 149.673071,31.5223804 148.671392,32.6017515 C147.669714,33.6797352 146.231015,34.2208081 144.353908,34.2208081 L125.395546,34.2208081 C123.0176,34.2208081 120.998981,34.0016042 119.339691,33.5631964 C117.683176,33.126176 116.329106,32.4130696 115.281644,31.4280395 C114.234183,30.441622 113.466969,29.1596954 112.981391,27.5808724 C112.4972,25.9992747 112.254411,24.0833216 112.254411,21.8316259 L112.254411,13.7585407 C112.254411,11.506845 112.4972,9.5978288 112.981391,8.03426684 C113.466969,6.46931751 114.234183,5.19432777 115.281644,4.20929761 C116.329106,3.22426745 117.683176,2.50422427 119.339691,2.05055545 C120.998981,1.59688663 123.0176,1.37074591 125.395546,1.37074591 L149.187492,1.37074591" id="Fill-7" fill="#C8332C"></path>
            <path d="M57.5172559,45.0658514 C57.5172559,45.1504808 57.5588769,45.1934891 57.6435062,45.1934891 L60.84971,45.1934891 C61.1355075,45.1934891 61.3769093,45.1671292 61.572528,45.1144093 C61.7681466,45.0630767 61.9263064,44.9784474 62.0456199,44.8605212 C62.1677082,44.7439824 62.2537249,44.58721 62.3050574,44.3915914 C62.3577774,44.1959727 62.3841373,43.9545709 62.3841373,43.6673861 L62.3841373,42.5935645 C62.3841373,42.3063796 62.3577774,42.0663652 62.3050574,41.8707466 C62.2537249,41.6751279 62.1677082,41.5183555 62.0456199,41.4018167 C61.9263064,41.2838906 61.7681466,41.1992612 61.572528,41.1465413 C61.3769093,41.0952087 61.1355075,41.0688488 60.84971,41.0688488 L57.6435062,41.0688488 C57.5588769,41.0688488 57.5172559,41.1146319 57.5172559,41.206198 L57.5172559,45.0658514 Z M60.8885563,39.710617 C61.4157555,39.710617 61.8694244,39.7647243 62.246788,39.8715515 C62.6241517,39.9783788 62.9349218,40.1448627 63.1749362,40.3696161 C63.4163379,40.5957568 63.5939208,40.8829417 63.7076849,41.2311706 C63.8228363,41.5793996 63.8797183,41.9900601 63.8797183,42.4659268 L63.8797183,43.7950238 C63.8797183,44.2708905 63.8228363,44.6843257 63.7076849,45.0325546 C63.5939208,45.3807836 63.4163379,45.6679685 63.1749362,45.8927218 C62.9349218,46.1160878 62.6241517,46.2825718 62.246788,46.389399 C61.8694244,46.4976136 61.4157555,46.5517209 60.8885563,46.5517209 L56.3157966,46.5517209 C56.1187905,46.5517209 56.0216749,46.4532179 56.0216749,46.2589866 L56.0216749,40.0033514 C56.0216749,39.8077327 56.1187905,39.710617 56.3157966,39.710617 L60.8885563,39.710617 L60.8885563,39.710617 Z" id="Fill-8" fill="#0A0B09"></path>
            <path d="M68.3747855,43.1998436 L72.1179001,43.1998436 C72.4494807,43.1998436 72.6839456,43.1277005 72.8212949,42.9848018 C72.9572568,42.8419031 73.0266252,42.6240865 73.0266252,42.3299648 L73.0266252,41.9193044 C73.0266252,41.6265701 72.9572568,41.4087535 72.8212949,41.2644674 C72.6839456,41.1201813 72.4494807,41.0494256 72.1179001,41.0494256 L68.5010359,41.0494256 C68.4164065,41.0494256 68.3747855,41.0882719 68.3747855,41.1673518 L68.3747855,43.1998436 Z M72.420346,39.710617 C73.1695239,39.710617 73.7064347,39.8798757 74.0324658,40.2183931 C74.3584969,40.5569106 74.5222062,41.0591372 74.5222062,41.7236857 L74.5222062,42.2800197 C74.5222062,42.8419031 74.4070547,43.2844729 74.1795267,43.6091167 C73.9519986,43.9351478 73.5801844,44.1446401 73.0654714,44.2362063 L74.7358606,46.3075444 C74.7691574,46.3394538 74.7788689,46.3880116 74.7649953,46.4532179 C74.752509,46.5184241 74.7011764,46.5517209 74.6096102,46.5517209 L73.3484942,46.5517209 C73.2638648,46.5517209 73.2042081,46.5420093 73.1722986,46.5225862 C73.1403892,46.5017757 73.1070924,46.4698663 73.075183,46.4254705 L71.5310441,44.3915914 L68.3747855,44.3915914 L68.3747855,46.3366791 C68.3747855,46.4795778 68.3026425,46.5517209 68.1597437,46.5517209 L67.1039579,46.5517209 C66.9541223,46.5517209 66.8792045,46.4795778 66.8792045,46.3366791 L66.8792045,40.0033514 C66.8792045,39.8077327 66.9777075,39.710617 67.1719388,39.710617 L72.420346,39.710617 L72.420346,39.710617 Z" id="Fill-9" fill="#0A0B09"></path>
            <path d="M78.7814211,39.710617 C78.9243198,39.710617 78.9964629,39.7827601 78.9964629,39.9256588 L78.9964629,46.3366791 C78.9964629,46.4795778 78.9243198,46.5517209 78.7814211,46.5517209 L77.7270226,46.5517209 C77.577187,46.5517209 77.5022692,46.4795778 77.5022692,46.3366791 L77.5022692,39.9256588 C77.5022692,39.7827601 77.577187,39.710617 77.7270226,39.710617 L78.7814211,39.710617" id="Fill-10" fill="#0A0B09"></path>
            <path d="M82.9643308,39.710617 C83.0295371,39.710617 83.0767075,39.7203286 83.1058422,39.7397517 C83.1349769,39.7591749 83.1627242,39.7910843 83.1890842,39.8382547 L86.0526085,45.0949861 C86.0720316,45.1407692 86.1108779,45.1643545 86.1691473,45.1643545 L86.2190925,45.1643545 C86.2648756,45.1643545 86.2995597,45.1407692 86.3259197,45.0949861 L89.1505977,39.8382547 C89.189444,39.7536254 89.2643618,39.710617 89.3753511,39.710617 L90.6558903,39.710617 C90.7335828,39.710617 90.7807533,39.7328149 90.7974017,39.7744359 C90.8126627,39.8160569 90.8043385,39.8701642 90.7738165,39.9353704 L87.5676126,45.8080925 C87.4039034,46.1077636 87.2457436,46.3075444 87.0889712,46.40466 C86.9321988,46.5017757 86.7504538,46.5517209 86.5409615,46.5517209 L85.974916,46.5517209 C85.7196406,46.5517209 85.5101482,46.5017757 85.3436643,46.40466 C85.1771803,46.3075444 85.0134711,46.1077636 84.8497618,45.8080925 L81.6060991,39.9353704 C81.5728023,39.8701642 81.5644781,39.8160569 81.5811265,39.7744359 C81.5977749,39.7328149 81.6477201,39.710617 81.7323495,39.710617 L82.9643308,39.710617" id="Fill-11" fill="#0A0B09"></path>
            <path d="M94.6612172,39.710617 C94.8055033,39.710617 94.8776463,39.7827601 94.8776463,39.9256588 L94.8776463,46.3366791 C94.8776463,46.4795778 94.8055033,46.5517209 94.6612172,46.5517209 L93.6068187,46.5517209 C93.4569831,46.5517209 93.3820653,46.4795778 93.3820653,46.3366791 L93.3820653,39.9256588 C93.3820653,39.7827601 93.4569831,39.710617 93.6068187,39.710617 L94.6612172,39.710617" id="Fill-12" fill="#0A0B09"></path>
            <path d="M99.6945826,39.710617 C99.8499676,39.710617 99.98038,39.7175539 100.084433,39.7314275 C100.189872,39.7425265 100.281439,39.7716612 100.359131,39.8132822 C100.436824,39.8549031 100.513129,39.9131725 100.583884,39.9894777 C100.656027,40.0643955 100.736495,40.1628985 100.829448,40.2877615 L104.464348,45.0561399 C104.489321,45.101923 104.532329,45.1241208 104.590599,45.1241208 L104.67939,45.1241208 C104.730723,45.1241208 104.757083,45.0922114 104.757083,45.0270052 L104.757083,39.9256588 C104.757083,39.7827601 104.827838,39.710617 104.972124,39.710617 L105.997388,39.710617 C106.141674,39.710617 106.21243,39.7827601 106.21243,39.9256588 L106.21243,45.5347813 C106.21243,45.9315681 106.141674,46.2021045 105.997388,46.3408412 C105.855877,46.4823526 105.632511,46.5517209 105.334227,46.5517209 L104.493483,46.5517209 C104.343647,46.5517209 104.217397,46.544784 104.117507,46.5322977 C104.014842,46.5184241 103.92605,46.4934515 103.848358,46.4532179 C103.770665,46.4143716 103.692973,46.3574896 103.618055,46.2825718 C103.544524,46.207654 103.45712,46.1049889 103.360005,45.9759638 L99.7140057,41.206198 C99.6765468,41.160415 99.6321511,41.1368297 99.5877553,41.1368297 L99.5003513,41.1368297 C99.446244,41.1368297 99.4212714,41.1701265 99.4212714,41.2353327 L99.4212714,46.3366791 C99.4212714,46.4795778 99.3491283,46.5517209 99.2062296,46.5517209 L98.1795784,46.5517209 C98.0297428,46.5517209 97.9548251,46.4795778 97.9548251,46.3366791 L97.9548251,40.7261693 C97.9548251,40.3293825 98.0269681,40.0602334 98.1712542,39.9201094 C98.3127656,39.7813727 98.5347442,39.710617 98.8344154,39.710617 L99.6945826,39.710617" id="Fill-13" fill="#0A0B09"></path>
            <path d="M116.903476,39.710617 C117.047762,39.710617 117.119905,39.7827601 117.119905,39.9256588 L117.119905,40.884329 C117.119905,41.0327772 117.047762,41.1090824 116.903476,41.1090824 L112.00746,41.1090824 C111.754959,41.1090824 111.544079,41.1285055 111.377595,41.1715139 C111.211111,41.2145222 111.079311,41.2866653 110.982196,41.3865557 C110.88508,41.4878334 110.814324,41.622408 110.772703,41.7916667 C110.728308,41.9623127 110.708885,42.1759672 110.708885,42.4381794 L110.708885,43.8435816 C110.708885,44.1057939 110.728308,44.322223 110.772703,44.4942565 C110.814324,44.6662899 110.88508,44.8036392 110.982196,44.9049169 C111.079311,45.0061947 111.211111,45.0769504 111.377595,45.1185714 C111.544079,45.1629671 111.754959,45.1823902 112.00746,45.1823902 L115.233087,45.1823902 C115.402345,45.1823902 115.525821,45.1393819 115.604901,45.0519778 C115.682593,44.9631863 115.721439,44.8091886 115.721439,44.58721 L115.721439,43.7950238 C115.721439,43.7117818 115.682593,43.6673861 115.604901,43.6673861 L112.741376,43.6673861 C112.59709,43.6673861 112.524947,43.5938557 112.524947,43.4440201 L112.524947,42.7114906 C112.524947,42.561655 112.59709,42.4867373 112.741376,42.4867373 L116.816072,42.4867373 C117.01169,42.4867373 117.108806,42.5838529 117.108806,42.7794716 L117.108806,45.0561399 C117.108806,45.6041496 117.004753,45.9884501 116.796648,46.2145908 C116.588544,46.4393442 116.288872,46.5517209 115.897635,46.5517209 L111.94919,46.5517209 C111.4539,46.5517209 111.033528,46.5059378 110.689461,46.4143716 C110.344007,46.3228054 110.062372,46.1757446 109.843168,45.9704143 C109.623964,45.7650841 109.464417,45.4973224 109.364527,45.1685166 C109.264636,44.8397107 109.213304,44.4401492 109.213304,43.9712193 L109.213304,42.2897312 C109.213304,41.8208014 109.264636,41.4240146 109.364527,41.0979835 C109.464417,40.7733397 109.623964,40.5069654 109.843168,40.3016351 C110.062372,40.0963049 110.344007,39.9478567 110.689461,39.8521284 C111.033528,39.7577875 111.4539,39.710617 111.94919,39.710617 L116.903476,39.710617" id="Fill-14" fill="#0A0B09"></path>
            <path d="M133.801599,39.710617 C133.944497,39.710617 134.015253,39.7827601 134.015253,39.9256588 L134.015253,40.853807 C134.015253,40.9980931 133.944497,41.0688488 133.801599,41.0688488 L128.905583,41.0688488 C128.715513,41.0688488 128.582326,41.118794 128.504634,41.2159096 C128.425554,41.3130253 128.388095,41.4475998 128.388095,41.6168585 L128.388095,41.9484391 C128.388095,42.3133164 128.557354,42.4964488 128.894484,42.4964488 L132.559906,42.4964488 C133.127339,42.4964488 133.55326,42.6407349 133.840445,42.9306945 C134.12763,43.2206541 134.270529,43.6354767 134.270529,44.1765496 L134.270529,44.9576369 C134.270529,45.4348909 134.130405,45.817804 133.850157,46.1119257 C133.569909,46.40466 133.134275,46.5517209 132.540483,46.5517209 L127.126979,46.5517209 C126.975756,46.5517209 126.902226,46.4795778 126.902226,46.3366791 L126.902226,45.4085309 C126.902226,45.2656322 126.975756,45.1934891 127.126979,45.1934891 L132.25746,45.1934891 C132.446142,45.1934891 132.579329,45.1449313 132.657021,45.0464283 C132.736101,44.9479253 132.774948,44.8161255 132.774948,44.6468668 L132.774948,44.2445305 C132.774948,43.8810405 132.605689,43.6979081 132.267171,43.6979081 L128.601749,43.6979081 C128.035704,43.6979081 127.608395,43.5522347 127.32121,43.2622751 C127.035413,42.9723155 126.892514,42.5588803 126.892514,42.0178074 L126.892514,41.3033137 C126.892514,40.8288344 127.031251,40.4431465 127.311499,40.1504122 C127.593134,39.8562905 128.028767,39.710617 128.621173,39.710617 L133.801599,39.710617" id="Fill-15" fill="#0A0B09"></path>
            <path d="M144.229045,39.710617 C144.370556,39.710617 144.442699,39.7827601 144.442699,39.9256588 L144.442699,40.884329 C144.442699,41.0327772 144.370556,41.1090824 144.229045,41.1090824 L139.879651,41.1090824 C139.624376,41.1090824 139.414883,41.1285055 139.249787,41.1715139 C139.083303,41.2145222 138.951503,41.2866653 138.853,41.3865557 C138.754497,41.4878334 138.686516,41.622408 138.64212,41.7916667 C138.600499,41.9623127 138.579689,42.1759672 138.579689,42.4381794 L138.579689,43.8255459 C138.579689,44.0849834 138.600499,44.3014125 138.64212,44.473446 C138.686516,44.6468668 138.754497,44.7842161 138.853,44.8841064 C138.951503,44.9867715 139.083303,45.0575272 139.249787,45.1005356 C139.414883,45.1421566 139.624376,45.1643545 139.879651,45.1643545 L144.229045,45.1643545 C144.370556,45.1643545 144.442699,45.2351101 144.442699,45.3793962 L144.442699,46.3366791 C144.442699,46.4795778 144.370556,46.5517209 144.229045,46.5517209 L139.819994,46.5517209 C139.326092,46.5517209 138.90572,46.5059378 138.560266,46.4143716 C138.214811,46.3228054 137.933176,46.1757446 137.713972,45.9704143 C137.496156,45.7650841 137.336608,45.4973224 137.235331,45.1685166 C137.13544,44.8397107 137.084108,44.4401492 137.084108,43.9712193 L137.084108,42.2897312 C137.084108,41.8208014 137.13544,41.4240146 137.235331,41.0979835 C137.336608,40.7733397 137.496156,40.5069654 137.713972,40.3016351 C137.933176,40.0963049 138.214811,39.9478567 138.560266,39.8521284 C138.90572,39.7577875 139.326092,39.710617 139.819994,39.710617 L144.229045,39.710617" id="Fill-16" fill="#0A0B09"></path>
            <path d="M148.546529,39.710617 C148.690815,39.710617 148.761571,39.7827601 148.761571,39.9256588 L148.761571,42.4659268 L153.335718,42.4659268 L153.335718,39.9256588 C153.335718,39.7827601 153.407861,39.710617 153.552147,39.710617 L154.606546,39.710617 C154.756381,39.710617 154.831299,39.7827601 154.831299,39.9256588 L154.831299,46.3366791 C154.831299,46.4795778 154.756381,46.5517209 154.606546,46.5517209 L153.552147,46.5517209 C153.407861,46.5517209 153.335718,46.4795778 153.335718,46.3366791 L153.335718,43.7367544 L148.761571,43.7367544 L148.761571,46.3366791 C148.761571,46.4795778 148.690815,46.5517209 148.546529,46.5517209 L147.492131,46.5517209 C147.342295,46.5517209 147.267377,46.4795778 147.267377,46.3366791 L147.267377,39.9256588 C147.267377,39.7827601 147.342295,39.710617 147.492131,39.710617 L148.546529,39.710617" id="Fill-17" fill="#0A0B09"></path>
            <path d="M159.316655,43.8643921 C159.316655,44.1182802 159.337465,44.3319346 159.380473,44.503968 C159.422094,44.6773888 159.49285,44.8147381 159.589966,44.9146285 C159.687081,45.0159062 159.820269,45.0880493 159.985365,45.1296703 C160.151849,45.1712913 160.362729,45.1934891 160.61523,45.1934891 L163.518988,45.1934891 C163.772876,45.1934891 163.982368,45.1712913 164.148852,45.1296703 C164.315336,45.0880493 164.447136,45.0159062 164.544251,44.9146285 C164.642754,44.8147381 164.712123,44.6773888 164.755131,44.503968 C164.798139,44.3319346 164.81895,44.1182802 164.81895,43.8643921 L164.81895,42.3979458 C164.81895,42.1440577 164.798139,41.9304033 164.755131,41.7569825 C164.712123,41.5849491 164.642754,41.4489872 164.544251,41.3477094 C164.447136,41.2464317 164.315336,41.175676 164.148852,41.1326676 C163.982368,41.0896593 163.772876,41.0688488 163.518988,41.0688488 L160.61523,41.0688488 C160.362729,41.0688488 160.151849,41.0896593 159.985365,41.1326676 C159.820269,41.175676 159.687081,41.2464317 159.589966,41.3477094 C159.49285,41.4489872 159.422094,41.5849491 159.380473,41.7569825 C159.337465,41.9304033 159.316655,42.1440577 159.316655,42.3979458 L159.316655,43.8643921 Z M163.577257,39.710617 C164.073934,39.710617 164.494306,39.7577875 164.842535,39.8521284 C165.190764,39.9478567 165.475174,40.0963049 165.692991,40.3016351 C165.912195,40.5069654 166.070354,40.7733397 166.16747,41.0979835 C166.265973,41.4240146 166.314531,41.8208014 166.314531,42.2897312 L166.314531,43.9712193 C166.314531,44.4401492 166.265973,44.8397107 166.16747,45.1685166 C166.070354,45.4973224 165.912195,45.7650841 165.692991,45.9704143 C165.475174,46.1757446 165.190764,46.3228054 164.842535,46.4143716 C164.494306,46.5059378 164.073934,46.5517209 163.577257,46.5517209 L160.55696,46.5517209 C160.063058,46.5517209 159.642686,46.5059378 159.297232,46.4143716 C158.951777,46.3228054 158.670142,46.1757446 158.452325,45.9704143 C158.234509,45.7650841 158.073574,45.4973224 157.972297,45.1685166 C157.872406,44.8397107 157.822461,44.4401492 157.822461,43.9712193 L157.822461,42.2897312 C157.822461,41.8208014 157.872406,41.4240146 157.972297,41.0979835 C158.073574,40.7733397 158.234509,40.5069654 158.452325,40.3016351 C158.670142,40.0963049 158.951777,39.9478567 159.297232,39.8521284 C159.642686,39.7577875 160.063058,39.710617 160.55696,39.710617 L163.577257,39.710617 L163.577257,39.710617 Z" id="Fill-18" fill="#0A0B09"></path>
            <path d="M170.722194,43.8643921 C170.722194,44.1182802 170.741617,44.3319346 170.784625,44.503968 C170.827634,44.6773888 170.897002,44.8147381 170.995505,44.9146285 C171.092621,45.0159062 171.224421,45.0880493 171.390905,45.1296703 C171.556001,45.1712913 171.765494,45.1934891 172.020769,45.1934891 L174.92314,45.1934891 C175.177028,45.1934891 175.387907,45.1712913 175.554391,45.1296703 C175.719488,45.0880493 175.852675,45.0159062 175.949791,44.9146285 C176.046906,44.8147381 176.117662,44.6773888 176.159283,44.503968 C176.202291,44.3319346 176.223102,44.1182802 176.223102,43.8643921 L176.223102,42.3979458 C176.223102,42.1440577 176.202291,41.9304033 176.159283,41.7569825 C176.117662,41.5849491 176.046906,41.4489872 175.949791,41.3477094 C175.852675,41.2464317 175.719488,41.175676 175.554391,41.1326676 C175.387907,41.0896593 175.177028,41.0688488 174.92314,41.0688488 L172.020769,41.0688488 C171.765494,41.0688488 171.556001,41.0896593 171.390905,41.1326676 C171.224421,41.175676 171.092621,41.2464317 170.995505,41.3477094 C170.897002,41.4489872 170.827634,41.5849491 170.784625,41.7569825 C170.741617,41.9304033 170.722194,42.1440577 170.722194,42.3979458 L170.722194,43.8643921 Z M174.982796,39.710617 C175.476699,39.710617 175.899846,39.7577875 176.248074,39.8521284 C176.596303,39.9478567 176.879326,40.0963049 177.097143,40.3016351 C177.314959,40.5069654 177.474506,40.7733397 177.571622,41.0979835 C177.668738,41.4240146 177.717296,41.8208014 177.717296,42.2897312 L177.717296,43.9712193 C177.717296,44.4401492 177.668738,44.8397107 177.571622,45.1685166 C177.474506,45.4973224 177.314959,45.7650841 177.097143,45.9704143 C176.879326,46.1757446 176.596303,46.3228054 176.248074,46.4143716 C175.899846,46.5059378 175.476699,46.5517209 174.982796,46.5517209 L171.9625,46.5517209 C171.46721,46.5517209 171.046838,46.5059378 170.701384,46.4143716 C170.357317,46.3228054 170.074294,46.1757446 169.85509,45.9704143 C169.637273,45.7650841 169.477726,45.4973224 169.377836,45.1685166 C169.276558,44.8397107 169.225226,44.4401492 169.225226,43.9712193 L169.225226,42.2897312 C169.225226,41.8208014 169.276558,41.4240146 169.377836,41.0979835 C169.477726,40.7733397 169.637273,40.5069654 169.85509,40.3016351 C170.074294,40.0963049 170.357317,39.9478567 170.701384,39.8521284 C171.046838,39.7577875 171.46721,39.710617 171.9625,39.710617 L174.982796,39.710617 L174.982796,39.710617 Z" id="Fill-19" fill="#0A0B09"></path>
            <path d="M181.969574,39.710617 C182.111085,39.710617 182.183228,39.7827601 182.183228,39.9256588 L182.183228,43.8255459 C182.183228,44.0849834 182.205426,44.3014125 182.247047,44.473446 C182.290055,44.6468668 182.359424,44.7842161 182.456539,44.8841064 C182.55643,44.9867715 182.688229,45.0575272 182.854713,45.1005356 C183.01981,45.1421566 183.229302,45.1643545 183.484578,45.1643545 L187.441347,45.1643545 C187.585633,45.1643545 187.657776,45.2351101 187.657776,45.3793962 L187.657776,46.3366791 C187.657776,46.4795778 187.585633,46.5517209 187.441347,46.5517209 L183.424921,46.5517209 C182.929631,46.5517209 182.510647,46.5059378 182.165192,46.4143716 C181.819738,46.3228054 181.536715,46.1757446 181.318899,45.9704143 C181.101082,45.7650841 180.941535,45.4973224 180.840257,45.1685166 C180.73898,44.8397107 180.689034,44.4401492 180.689034,43.9712193 L180.689034,39.9256588 C180.689034,39.7827601 180.763952,39.710617 180.913788,39.710617 L181.969574,39.710617" id="Fill-20" fill="#0A0B09"></path>
            <path d="M173.824345,23.986206 C173.673122,23.986206 173.520512,23.8335957 173.520512,23.6310402 L173.520512,1.66625495 C173.520512,1.36103434 173.317957,1.10714629 173.014123,1.10714629 L164.448523,1.10714629 C164.093357,1.10714629 163.789524,1.51364465 163.789524,1.81747789 L163.789524,33.8184718 C163.789524,34.1722503 164.043412,34.4760835 164.347245,34.4760835 L187.061208,34.4760835 C187.366429,34.4760835 187.61893,34.2235828 187.61893,33.9183622 L187.61893,24.4925947 C187.61893,24.2387067 187.416374,23.986206 187.061208,23.986206 L173.824345,23.986206" id="Fill-21" fill="#0A0B09"></path>
        </g>
    </g>
</svg>